<?xml version="1.0" encoding="UTF-8"?>
<svg xmlns="http://www.w3.org/2000/svg" viewBox="0 0 1200 1200" fill="#3b82f6">
  <path d="M600 0C268.6 0 0 268.6 0 600s268.6 600 600 600s600-268.6 600-600S931.4 0 600 0zM600 250C382.8 250 206.2 426.6 206.2 643.8c0 132.4 65.6 255.8 175.4 329.4c-106.6 55.6-190.2 150.2-228 265C64.8 1126 232 1050 405 996c71.4 -22.2 147 -33.8 223.4 -33.8c58.2 0 115.6 8.4 170.6 24.6c55 -16.2 112.4 -24.6 170.6 -24.6c76.4 0 152 11.6 223.4 33.8c173 54 182.6 130 93 242c-37.8 -114.8 -121.4 -209.4 -228 -265c109.8 -73.6 175.4 -197 175.4 -329.4C1234.2 426.6 1057.6 250 840.4 250H600zM600 371.2C751.4 371.2 874.2 494 874.2 645.4A274.32 274.32 0 0 1 600 919.8A274.32 274.32 0 0 1 325.8 645.4C325.8 494 448.6 371.2 600 371.2z"/>
</svg>
